# xmcd CD database file generated by OrangeCD 5.2
#
# Track frame offsets:
#	150
#	14388
#	31999
#	45828
#	64032
#	77993
#	93849
#	115605
#	130084
#	145258
#	164389
#	182314
#
# Disc length: 2647 seconds
#
# Revision: 0
# Processed by: cddbd v1.5PL3 Copyright (c) Steve Scherf et al.
# Submitted via: OrangeCD 5.2
#
DISCID=8a0a550c
DTITLE=Lana Kress - Be Careful What You Wish For
DYEAR=1999
DGENRE=Country
TTITLE0=Long Night
TTITLE1=Be Careful What You Wish For
TTITLE2=That's Why I'm Walkin'
TTITLE3=Dancin' 'Round and 'Round
TTITLE4=Sidetracked
TTITLE5=I Know Too Much
TTITLE6=If I'm Not Already Crazy
TTITLE7=Sorry, Sorry Won't Work This Time
TTITLE8=Go On
TTITLE9=Step Away
TTITLE10=Let Me Be The One
TTITLE11=It Started in a Manger
EXTD=
EXTT0=
EXTT1=
EXTT2=
EXTT3=
EXTT4=
EXTT5=
EXTT6=
EXTT7=
EXTT8=
EXTT9=
EXTT10=
EXTT11=
PLAYORDER=
